<svg width="203" height="183" viewBox="0 0 203 183" fill="none" xmlns="http://www.w3.org/2000/svg">
<path d="M143.419 37.2507C157.528 45.2692 171.738 54.0997 176.305 66.5842C180.771 79.0687 175.595 95.2072 173.362 111.955C171.129 128.601 171.839 145.856 163.415 154.382C154.889 162.908 137.126 162.705 122.815 161.081C108.402 159.355 97.3382 156.209 85.0567 154.179C72.6737 152.047 59.0727 151.134 46.1822 144.739C33.3932 138.345 21.3147 126.571 20.8072 113.883C20.1982 101.297 31.0587 87.7977 38.8742 73.9937C46.7912 60.1897 51.7647 46.0812 61.7117 36.1342C71.6587 26.1872 86.5792 20.5032 100.992 21.3152C115.405 22.0257 129.412 29.2322 143.419 37.2507Z" fill="#8B5CF6"/>
<mask id="path-2-inside-1_16_31" fill="white">
<path d="M148.267 30.0809C164.04 39.0452 179.926 48.9173 185.033 62.8744C190.025 76.8316 184.238 94.8737 181.742 113.597C179.245 132.206 180.04 151.497 170.622 161.028C161.09 170.56 141.232 170.333 125.232 168.517C109.119 166.588 96.7508 163.071 83.0206 160.801C69.177 158.418 53.9716 157.397 39.5606 150.248C25.2631 143.1 11.7598 129.937 11.1925 115.753C10.5116 101.682 22.6532 86.5902 31.3906 71.1579C40.2415 55.7257 45.8016 39.953 56.9219 28.8327C68.0423 17.7123 84.7227 11.3579 100.836 12.2657C116.949 13.06 132.608 21.1165 148.267 30.0809Z"/>
</mask>
<path d="M148.267 30.0809C164.04 39.0452 179.926 48.9173 185.033 62.8744C190.025 76.8316 184.238 94.8737 181.742 113.597C179.245 132.206 180.04 151.497 170.622 161.028C161.09 170.56 141.232 170.333 125.232 168.517C109.119 166.588 96.7508 163.071 83.0206 160.801C69.177 158.418 53.9716 157.397 39.5606 150.248C25.2631 143.1 11.7598 129.937 11.1925 115.753C10.5116 101.682 22.6532 86.5902 31.3906 71.1579C40.2415 55.7257 45.8016 39.953 56.9219 28.8327C68.0423 17.7123 84.7227 11.3579 100.836 12.2657C116.949 13.06 132.608 21.1165 148.267 30.0809Z" stroke="#8B5CF6" stroke-width="2.26945" mask="url(#path-2-inside-1_16_31)"/>
<mask id="path-3-inside-2_16_31" fill="white">
<path d="M159.401 23.1947C177.156 33.2852 195.037 44.3975 200.785 60.1081C206.405 75.8186 199.891 96.1273 197.081 117.202C194.271 138.15 195.165 159.864 184.564 170.593C173.835 181.322 151.482 181.066 133.473 179.023C115.335 176.851 101.413 172.892 85.9578 170.337C70.375 167.655 53.2595 166.505 37.038 158.459C20.9443 150.412 5.7447 135.595 5.10607 119.629C4.3397 103.791 18.0066 86.8032 27.8416 69.4322C37.8044 52.0612 44.0631 34.307 56.5804 21.7897C69.0977 9.27235 87.8737 2.11959 106.011 3.14142C124.148 4.03551 141.775 13.1042 159.401 23.1947Z"/>
</mask>
<path d="M159.401 23.1947C177.156 33.2852 195.037 44.3975 200.785 60.1081C206.405 75.8186 199.891 96.1273 197.081 117.202C194.271 138.15 195.165 159.864 184.564 170.593C173.835 181.322 151.482 181.066 133.473 179.023C115.335 176.851 101.413 172.892 85.9578 170.337C70.375 167.655 53.2595 166.505 37.038 158.459C20.9443 150.412 5.7447 135.595 5.10607 119.629C4.3397 103.791 18.0066 86.8032 27.8416 69.4322C37.8044 52.0612 44.0631 34.307 56.5804 21.7897C69.0977 9.27235 87.8737 2.11959 106.011 3.14142C124.148 4.03551 141.775 13.1042 159.401 23.1947Z" stroke="#8B5CF6" stroke-width="2.55456" mask="url(#path-3-inside-2_16_31)"/>
</svg>
